# xmcd
#
# Track frame offsets:
#	150
#	14737
#	34215
#	51300
#	70895
#	84035
#	98690
#	119215
#	129052
#	148482
#
# Disc length: 2276 seconds
#
# Revision: 2
# Processed by: cddbd v1.5.1PL0 Copyright (c) Steve Scherf et al.
# Submitted via: EasyCDDAExtractor 7.0.6.1
#
DISCID=8e08e20a
DTITLE=Roomful of Blues - The First Album
DYEAR=1988
DGENRE=Blues
TTITLE0=Red, Hot and Blue
TTITLE1=Love Struck
TTITLE2=That's My Life
TTITLE3=Duke's Blues
TTITLE4=Texas Flood
TTITLE5=Give It Up
TTITLE6=Stormy Monday
TTITLE7=Take It Like A Man
TTITLE8=Still In Love With You
TTITLE9=Honey Hush
EXTD=
EXTT0=
EXTT1=
EXTT2=
EXTT3=
EXTT4=
EXTT5=
EXTT6=
EXTT7=
EXTT8=
EXTT9=
PLAYORDER=
